<?xml version="1.0" standalone="no"?>
<!DOCTYPE svg PUBLIC "-//W3C//DTD SVG 20010904//EN"
 "http://www.w3.org/TR/2001/REC-SVG-20010904/DTD/svg10.dtd">
<svg version="1.0" xmlns="http://www.w3.org/2000/svg"
 width="1172.000000pt" height="1172.000000pt" viewBox="0 0 1172.000000 1172.000000"
 preserveAspectRatio="xMidYMid meet">
<metadata>
Created by potrace 1.14, written by Peter Selinger 2001-2017
</metadata>
<g transform="translate(0.000000,1172.000000) scale(0.100000,-0.100000)"
fill="#000000" stroke="none">
<path d="M5390 11449 c-256 -149 -478 -279 -495 -289 -16 -9 -718 -419 -1560
-910 -841 -491 -1546 -902 -1565 -913 -58 -33 -289 -167 -390 -227 -52 -31
-191 -112 -307 -179 l-213 -124 0 -2951 1 -2951 346 -200 c190 -110 420 -244
512 -297 91 -54 173 -101 181 -105 8 -4 55 -31 104 -60 49 -29 90 -53 92 -53
2 0 32 -17 66 -38 35 -21 88 -52 118 -69 30 -17 206 -118 390 -225 184 -107
524 -304 755 -438 231 -134 530 -307 665 -385 249 -145 680 -394 735 -425 17
-9 95 -55 175 -102 80 -46 310 -180 512 -297 l368 -213 107 64 c486 287 617
365 641 379 15 9 250 148 522 309 692 410 761 451 795 470 17 10 127 75 245
145 118 70 391 231 605 358 215 126 413 245 442 263 28 19 54 34 56 34 6 0
253 146 289 171 15 11 29 19 32 19 3 0 83 46 178 103 95 57 374 222 620 368
l448 264 0 2952 0 2953 -22 -9 c-19 -7 -171 78 -938 525 -503 294 -1003 585
-1110 647 -107 63 -343 201 -525 307 -181 106 -370 216 -420 245 -49 29 -265
155 -480 280 -214 125 -433 253 -485 283 -52 30 -298 174 -547 318 -248 145
-458 266 -465 269 -7 3 -222 -117 -478 -266z"/>
</g>
</svg>
